<mxfile host="app.diagrams.net" modified="2021-12-11T09:20:21.618Z" agent="5.0 (Windows NT 10.0; Win64; x64) AppleWebKit/537.36 (KHTML, like Gecko) Chrome/96.0.4664.93 Safari/537.36" etag="Vn791gNaMLF0enL-pydo" version="15.9.4" type="github">
  <diagram id="q-P-utrXm9krCEw3EBsa" name="Page-1">
    <mxGraphModel dx="1422" dy="762" grid="1" gridSize="10" guides="1" tooltips="1" connect="1" arrows="1" fold="1" page="1" pageScale="1" pageWidth="827" pageHeight="1169" math="0" shadow="0">
      <root>
        <mxCell id="0" />
        <mxCell id="1" parent="0" />
        <mxCell id="PM857RW7kMLTX4pS_oOw-1" value="Persona" style="swimlane;fontStyle=0;childLayout=stackLayout;horizontal=1;startSize=40;horizontalStack=0;resizeParent=1;resizeParentMax=0;resizeLast=0;collapsible=1;marginBottom=0;" vertex="1" parent="1">
          <mxGeometry x="130" y="40" width="140" height="250" as="geometry" />
        </mxCell>
        <mxCell id="PM857RW7kMLTX4pS_oOw-17" value="" style="swimlane;fontStyle=0;childLayout=stackLayout;horizontal=1;startSize=0;horizontalStack=0;resizeParent=1;resizeParentMax=0;resizeLast=0;collapsible=1;marginBottom=0;shadow=0;glass=0;sketch=0;strokeColor=default;fillColor=none;" vertex="1" parent="PM857RW7kMLTX4pS_oOw-1">
          <mxGeometry y="40" width="140" height="120" as="geometry" />
        </mxCell>
        <mxCell id="PM857RW7kMLTX4pS_oOw-18" value="-String nome   " style="text;strokeColor=none;fillColor=none;align=left;verticalAlign=middle;spacingLeft=4;spacingRight=4;overflow=hidden;points=[[0,0.5],[1,0.5]];portConstraint=eastwest;rotatable=0;shadow=0;glass=0;sketch=0;" vertex="1" parent="PM857RW7kMLTX4pS_oOw-17">
          <mxGeometry width="140" height="30" as="geometry" />
        </mxCell>
        <mxCell id="PM857RW7kMLTX4pS_oOw-19" value="-String cognome" style="text;strokeColor=none;fillColor=none;align=left;verticalAlign=middle;spacingLeft=4;spacingRight=4;overflow=hidden;points=[[0,0.5],[1,0.5]];portConstraint=eastwest;rotatable=0;shadow=0;glass=0;sketch=0;" vertex="1" parent="PM857RW7kMLTX4pS_oOw-17">
          <mxGeometry y="30" width="140" height="30" as="geometry" />
        </mxCell>
        <mxCell id="PM857RW7kMLTX4pS_oOw-20" value="-String codiceFiscale" style="text;strokeColor=none;fillColor=none;align=left;verticalAlign=middle;spacingLeft=4;spacingRight=4;overflow=hidden;points=[[0,0.5],[1,0.5]];portConstraint=eastwest;rotatable=0;shadow=0;glass=0;sketch=0;" vertex="1" parent="PM857RW7kMLTX4pS_oOw-17">
          <mxGeometry y="60" width="140" height="30" as="geometry" />
        </mxCell>
        <mxCell id="PM857RW7kMLTX4pS_oOw-38" value="-String dataDiNascita" style="text;strokeColor=none;fillColor=none;align=left;verticalAlign=middle;spacingLeft=4;spacingRight=4;overflow=hidden;points=[[0,0.5],[1,0.5]];portConstraint=eastwest;rotatable=0;shadow=0;glass=0;sketch=0;" vertex="1" parent="PM857RW7kMLTX4pS_oOw-17">
          <mxGeometry y="90" width="140" height="30" as="geometry" />
        </mxCell>
        <mxCell id="PM857RW7kMLTX4pS_oOw-2" value="Item 1" style="text;strokeColor=none;fillColor=none;align=left;verticalAlign=middle;spacingLeft=4;spacingRight=4;overflow=hidden;points=[[0,0.5],[1,0.5]];portConstraint=eastwest;rotatable=0;" vertex="1" parent="PM857RW7kMLTX4pS_oOw-1">
          <mxGeometry y="160" width="140" height="30" as="geometry" />
        </mxCell>
        <mxCell id="PM857RW7kMLTX4pS_oOw-4" value="Item 3" style="text;strokeColor=none;fillColor=none;align=left;verticalAlign=middle;spacingLeft=4;spacingRight=4;overflow=hidden;points=[[0,0.5],[1,0.5]];portConstraint=eastwest;rotatable=0;" vertex="1" parent="PM857RW7kMLTX4pS_oOw-1">
          <mxGeometry y="190" width="140" height="30" as="geometry" />
        </mxCell>
        <mxCell id="PM857RW7kMLTX4pS_oOw-6" value="Item 1" style="text;strokeColor=none;fillColor=none;align=left;verticalAlign=middle;spacingLeft=4;spacingRight=4;overflow=hidden;points=[[0,0.5],[1,0.5]];portConstraint=eastwest;rotatable=0;" vertex="1" parent="PM857RW7kMLTX4pS_oOw-1">
          <mxGeometry y="220" width="140" height="30" as="geometry" />
        </mxCell>
        <mxCell id="PM857RW7kMLTX4pS_oOw-42" style="edgeStyle=orthogonalEdgeStyle;rounded=0;orthogonalLoop=1;jettySize=auto;html=1;exitX=0.5;exitY=0;exitDx=0;exitDy=0;entryX=1.007;entryY=0.092;entryDx=0;entryDy=0;entryPerimeter=0;" edge="1" parent="1" source="PM857RW7kMLTX4pS_oOw-21" target="PM857RW7kMLTX4pS_oOw-1">
          <mxGeometry relative="1" as="geometry" />
        </mxCell>
        <mxCell id="PM857RW7kMLTX4pS_oOw-21" value="Studente" style="swimlane;fontStyle=0;childLayout=stackLayout;horizontal=1;startSize=40;horizontalStack=0;resizeParent=1;resizeParentMax=0;resizeLast=0;collapsible=1;marginBottom=0;" vertex="1" parent="1">
          <mxGeometry x="230" y="370" width="140" height="250" as="geometry" />
        </mxCell>
        <mxCell id="PM857RW7kMLTX4pS_oOw-22" value="" style="swimlane;fontStyle=0;childLayout=stackLayout;horizontal=1;startSize=0;horizontalStack=0;resizeParent=1;resizeParentMax=0;resizeLast=0;collapsible=1;marginBottom=0;shadow=0;glass=0;sketch=0;strokeColor=default;fillColor=none;" vertex="1" parent="PM857RW7kMLTX4pS_oOw-21">
          <mxGeometry y="40" width="140" height="120" as="geometry" />
        </mxCell>
        <mxCell id="PM857RW7kMLTX4pS_oOw-23" value="-String matricola" style="text;strokeColor=none;fillColor=none;align=left;verticalAlign=middle;spacingLeft=4;spacingRight=4;overflow=hidden;points=[[0,0.5],[1,0.5]];portConstraint=eastwest;rotatable=0;shadow=0;glass=0;sketch=0;" vertex="1" parent="PM857RW7kMLTX4pS_oOw-22">
          <mxGeometry width="140" height="30" as="geometry" />
        </mxCell>
        <mxCell id="PM857RW7kMLTX4pS_oOw-24" value="-String tipoMaturita" style="text;strokeColor=none;fillColor=none;align=left;verticalAlign=middle;spacingLeft=4;spacingRight=4;overflow=hidden;points=[[0,0.5],[1,0.5]];portConstraint=eastwest;rotatable=0;shadow=0;glass=0;sketch=0;" vertex="1" parent="PM857RW7kMLTX4pS_oOw-22">
          <mxGeometry y="30" width="140" height="30" as="geometry" />
        </mxCell>
        <mxCell id="PM857RW7kMLTX4pS_oOw-25" value="-int annoImmatricolaizone" style="text;strokeColor=none;fillColor=none;align=left;verticalAlign=middle;spacingLeft=4;spacingRight=4;overflow=hidden;points=[[0,0.5],[1,0.5]];portConstraint=eastwest;rotatable=0;shadow=0;glass=0;sketch=0;" vertex="1" parent="PM857RW7kMLTX4pS_oOw-22">
          <mxGeometry y="60" width="140" height="30" as="geometry" />
        </mxCell>
        <mxCell id="PM857RW7kMLTX4pS_oOw-39" value="-int annoLaurea" style="text;strokeColor=none;fillColor=none;align=left;verticalAlign=middle;spacingLeft=4;spacingRight=4;overflow=hidden;points=[[0,0.5],[1,0.5]];portConstraint=eastwest;rotatable=0;shadow=0;glass=0;sketch=0;" vertex="1" parent="PM857RW7kMLTX4pS_oOw-22">
          <mxGeometry y="90" width="140" height="30" as="geometry" />
        </mxCell>
        <mxCell id="PM857RW7kMLTX4pS_oOw-26" value="Item 1" style="text;strokeColor=none;fillColor=none;align=left;verticalAlign=middle;spacingLeft=4;spacingRight=4;overflow=hidden;points=[[0,0.5],[1,0.5]];portConstraint=eastwest;rotatable=0;" vertex="1" parent="PM857RW7kMLTX4pS_oOw-21">
          <mxGeometry y="160" width="140" height="30" as="geometry" />
        </mxCell>
        <mxCell id="PM857RW7kMLTX4pS_oOw-27" value="Item 3" style="text;strokeColor=none;fillColor=none;align=left;verticalAlign=middle;spacingLeft=4;spacingRight=4;overflow=hidden;points=[[0,0.5],[1,0.5]];portConstraint=eastwest;rotatable=0;" vertex="1" parent="PM857RW7kMLTX4pS_oOw-21">
          <mxGeometry y="190" width="140" height="30" as="geometry" />
        </mxCell>
        <mxCell id="PM857RW7kMLTX4pS_oOw-28" value="Item 1" style="text;strokeColor=none;fillColor=none;align=left;verticalAlign=middle;spacingLeft=4;spacingRight=4;overflow=hidden;points=[[0,0.5],[1,0.5]];portConstraint=eastwest;rotatable=0;" vertex="1" parent="PM857RW7kMLTX4pS_oOw-21">
          <mxGeometry y="220" width="140" height="30" as="geometry" />
        </mxCell>
        <mxCell id="PM857RW7kMLTX4pS_oOw-41" style="edgeStyle=orthogonalEdgeStyle;rounded=0;orthogonalLoop=1;jettySize=auto;html=1;exitX=0.5;exitY=0;exitDx=0;exitDy=0;entryX=0;entryY=0.068;entryDx=0;entryDy=0;entryPerimeter=0;" edge="1" parent="1" source="PM857RW7kMLTX4pS_oOw-30" target="PM857RW7kMLTX4pS_oOw-1">
          <mxGeometry relative="1" as="geometry" />
        </mxCell>
        <mxCell id="PM857RW7kMLTX4pS_oOw-30" value="Docente" style="swimlane;fontStyle=0;childLayout=stackLayout;horizontal=1;startSize=40;horizontalStack=0;resizeParent=1;resizeParentMax=0;resizeLast=0;collapsible=1;marginBottom=0;" vertex="1" parent="1">
          <mxGeometry x="40" y="370" width="140" height="190" as="geometry" />
        </mxCell>
        <mxCell id="PM857RW7kMLTX4pS_oOw-31" value="" style="swimlane;fontStyle=0;childLayout=stackLayout;horizontal=1;startSize=0;horizontalStack=0;resizeParent=1;resizeParentMax=0;resizeLast=0;collapsible=1;marginBottom=0;shadow=0;glass=0;sketch=0;strokeColor=default;fillColor=none;" vertex="1" parent="PM857RW7kMLTX4pS_oOw-30">
          <mxGeometry y="40" width="140" height="60" as="geometry" />
        </mxCell>
        <mxCell id="PM857RW7kMLTX4pS_oOw-32" value="-String tipo" style="text;strokeColor=none;fillColor=none;align=left;verticalAlign=middle;spacingLeft=4;spacingRight=4;overflow=hidden;points=[[0,0.5],[1,0.5]];portConstraint=eastwest;rotatable=0;shadow=0;glass=0;sketch=0;" vertex="1" parent="PM857RW7kMLTX4pS_oOw-31">
          <mxGeometry width="140" height="30" as="geometry" />
        </mxCell>
        <mxCell id="PM857RW7kMLTX4pS_oOw-33" value="-String[] laurea" style="text;strokeColor=none;fillColor=none;align=left;verticalAlign=middle;spacingLeft=4;spacingRight=4;overflow=hidden;points=[[0,0.5],[1,0.5]];portConstraint=eastwest;rotatable=0;shadow=0;glass=0;sketch=0;" vertex="1" parent="PM857RW7kMLTX4pS_oOw-31">
          <mxGeometry y="30" width="140" height="30" as="geometry" />
        </mxCell>
        <mxCell id="PM857RW7kMLTX4pS_oOw-35" value="Item 1" style="text;strokeColor=none;fillColor=none;align=left;verticalAlign=middle;spacingLeft=4;spacingRight=4;overflow=hidden;points=[[0,0.5],[1,0.5]];portConstraint=eastwest;rotatable=0;" vertex="1" parent="PM857RW7kMLTX4pS_oOw-30">
          <mxGeometry y="100" width="140" height="30" as="geometry" />
        </mxCell>
        <mxCell id="PM857RW7kMLTX4pS_oOw-36" value="Item 3" style="text;strokeColor=none;fillColor=none;align=left;verticalAlign=middle;spacingLeft=4;spacingRight=4;overflow=hidden;points=[[0,0.5],[1,0.5]];portConstraint=eastwest;rotatable=0;" vertex="1" parent="PM857RW7kMLTX4pS_oOw-30">
          <mxGeometry y="130" width="140" height="30" as="geometry" />
        </mxCell>
        <mxCell id="PM857RW7kMLTX4pS_oOw-37" value="Item 1" style="text;strokeColor=none;fillColor=none;align=left;verticalAlign=middle;spacingLeft=4;spacingRight=4;overflow=hidden;points=[[0,0.5],[1,0.5]];portConstraint=eastwest;rotatable=0;" vertex="1" parent="PM857RW7kMLTX4pS_oOw-30">
          <mxGeometry y="160" width="140" height="30" as="geometry" />
        </mxCell>
        <mxCell id="PM857RW7kMLTX4pS_oOw-43" value="Facolta" style="swimlane;fontStyle=0;childLayout=stackLayout;horizontal=1;startSize=40;horizontalStack=0;resizeParent=1;resizeParentMax=0;resizeLast=0;collapsible=1;marginBottom=0;" vertex="1" parent="1">
          <mxGeometry x="520" y="40" width="140" height="220" as="geometry" />
        </mxCell>
        <mxCell id="PM857RW7kMLTX4pS_oOw-44" value="" style="swimlane;fontStyle=0;childLayout=stackLayout;horizontal=1;startSize=0;horizontalStack=0;resizeParent=1;resizeParentMax=0;resizeLast=0;collapsible=1;marginBottom=0;shadow=0;glass=0;sketch=0;strokeColor=default;fillColor=none;" vertex="1" parent="PM857RW7kMLTX4pS_oOw-43">
          <mxGeometry y="40" width="140" height="90" as="geometry" />
        </mxCell>
        <mxCell id="PM857RW7kMLTX4pS_oOw-45" value="-String nome" style="text;strokeColor=none;fillColor=none;align=left;verticalAlign=middle;spacingLeft=4;spacingRight=4;overflow=hidden;points=[[0,0.5],[1,0.5]];portConstraint=eastwest;rotatable=0;shadow=0;glass=0;sketch=0;" vertex="1" parent="PM857RW7kMLTX4pS_oOw-44">
          <mxGeometry width="140" height="30" as="geometry" />
        </mxCell>
        <mxCell id="PM857RW7kMLTX4pS_oOw-46" value="-int newMatricola" style="text;strokeColor=none;fillColor=none;align=left;verticalAlign=middle;spacingLeft=4;spacingRight=4;overflow=hidden;points=[[0,0.5],[1,0.5]];portConstraint=eastwest;rotatable=0;shadow=0;glass=0;sketch=0;" vertex="1" parent="PM857RW7kMLTX4pS_oOw-44">
          <mxGeometry y="30" width="140" height="30" as="geometry" />
        </mxCell>
        <mxCell id="PM857RW7kMLTX4pS_oOw-47" value="-String tipo" style="text;strokeColor=none;fillColor=none;align=left;verticalAlign=middle;spacingLeft=4;spacingRight=4;overflow=hidden;points=[[0,0.5],[1,0.5]];portConstraint=eastwest;rotatable=0;shadow=0;glass=0;sketch=0;" vertex="1" parent="PM857RW7kMLTX4pS_oOw-44">
          <mxGeometry y="60" width="140" height="30" as="geometry" />
        </mxCell>
        <mxCell id="PM857RW7kMLTX4pS_oOw-48" value="Item 1" style="text;strokeColor=none;fillColor=none;align=left;verticalAlign=middle;spacingLeft=4;spacingRight=4;overflow=hidden;points=[[0,0.5],[1,0.5]];portConstraint=eastwest;rotatable=0;" vertex="1" parent="PM857RW7kMLTX4pS_oOw-43">
          <mxGeometry y="130" width="140" height="30" as="geometry" />
        </mxCell>
        <mxCell id="PM857RW7kMLTX4pS_oOw-49" value="Item 3" style="text;strokeColor=none;fillColor=none;align=left;verticalAlign=middle;spacingLeft=4;spacingRight=4;overflow=hidden;points=[[0,0.5],[1,0.5]];portConstraint=eastwest;rotatable=0;" vertex="1" parent="PM857RW7kMLTX4pS_oOw-43">
          <mxGeometry y="160" width="140" height="30" as="geometry" />
        </mxCell>
        <mxCell id="PM857RW7kMLTX4pS_oOw-50" value="Item 1" style="text;strokeColor=none;fillColor=none;align=left;verticalAlign=middle;spacingLeft=4;spacingRight=4;overflow=hidden;points=[[0,0.5],[1,0.5]];portConstraint=eastwest;rotatable=0;" vertex="1" parent="PM857RW7kMLTX4pS_oOw-43">
          <mxGeometry y="190" width="140" height="30" as="geometry" />
        </mxCell>
        <mxCell id="PM857RW7kMLTX4pS_oOw-51" value="Dipartimento" style="swimlane;fontStyle=0;childLayout=stackLayout;horizontal=1;startSize=40;horizontalStack=0;resizeParent=1;resizeParentMax=0;resizeLast=0;collapsible=1;marginBottom=0;" vertex="1" parent="1">
          <mxGeometry x="520" y="320" width="140" height="190" as="geometry" />
        </mxCell>
        <mxCell id="PM857RW7kMLTX4pS_oOw-52" value="" style="swimlane;fontStyle=0;childLayout=stackLayout;horizontal=1;startSize=0;horizontalStack=0;resizeParent=1;resizeParentMax=0;resizeLast=0;collapsible=1;marginBottom=0;shadow=0;glass=0;sketch=0;strokeColor=default;fillColor=none;" vertex="1" parent="PM857RW7kMLTX4pS_oOw-51">
          <mxGeometry y="40" width="140" height="60" as="geometry" />
        </mxCell>
        <mxCell id="PM857RW7kMLTX4pS_oOw-53" value="-Facolta[] arr" style="text;strokeColor=none;fillColor=none;align=left;verticalAlign=middle;spacingLeft=4;spacingRight=4;overflow=hidden;points=[[0,0.5],[1,0.5]];portConstraint=eastwest;rotatable=0;shadow=0;glass=0;sketch=0;" vertex="1" parent="PM857RW7kMLTX4pS_oOw-52">
          <mxGeometry width="140" height="30" as="geometry" />
        </mxCell>
        <mxCell id="PM857RW7kMLTX4pS_oOw-54" value="-String nome" style="text;strokeColor=none;fillColor=none;align=left;verticalAlign=middle;spacingLeft=4;spacingRight=4;overflow=hidden;points=[[0,0.5],[1,0.5]];portConstraint=eastwest;rotatable=0;shadow=0;glass=0;sketch=0;" vertex="1" parent="PM857RW7kMLTX4pS_oOw-52">
          <mxGeometry y="30" width="140" height="30" as="geometry" />
        </mxCell>
        <mxCell id="PM857RW7kMLTX4pS_oOw-56" value="Item 1" style="text;strokeColor=none;fillColor=none;align=left;verticalAlign=middle;spacingLeft=4;spacingRight=4;overflow=hidden;points=[[0,0.5],[1,0.5]];portConstraint=eastwest;rotatable=0;" vertex="1" parent="PM857RW7kMLTX4pS_oOw-51">
          <mxGeometry y="100" width="140" height="30" as="geometry" />
        </mxCell>
        <mxCell id="PM857RW7kMLTX4pS_oOw-57" value="Item 3" style="text;strokeColor=none;fillColor=none;align=left;verticalAlign=middle;spacingLeft=4;spacingRight=4;overflow=hidden;points=[[0,0.5],[1,0.5]];portConstraint=eastwest;rotatable=0;" vertex="1" parent="PM857RW7kMLTX4pS_oOw-51">
          <mxGeometry y="130" width="140" height="30" as="geometry" />
        </mxCell>
        <mxCell id="PM857RW7kMLTX4pS_oOw-58" value="Item 1" style="text;strokeColor=none;fillColor=none;align=left;verticalAlign=middle;spacingLeft=4;spacingRight=4;overflow=hidden;points=[[0,0.5],[1,0.5]];portConstraint=eastwest;rotatable=0;" vertex="1" parent="PM857RW7kMLTX4pS_oOw-51">
          <mxGeometry y="160" width="140" height="30" as="geometry" />
        </mxCell>
        <mxCell id="PM857RW7kMLTX4pS_oOw-59" value="Universita" style="swimlane;fontStyle=0;childLayout=stackLayout;horizontal=1;startSize=40;horizontalStack=0;resizeParent=1;resizeParentMax=0;resizeLast=0;collapsible=1;marginBottom=0;" vertex="1" parent="1">
          <mxGeometry x="520" y="560" width="160" height="220" as="geometry" />
        </mxCell>
        <mxCell id="PM857RW7kMLTX4pS_oOw-60" value="" style="swimlane;fontStyle=0;childLayout=stackLayout;horizontal=1;startSize=0;horizontalStack=0;resizeParent=1;resizeParentMax=0;resizeLast=0;collapsible=1;marginBottom=0;shadow=0;glass=0;sketch=0;strokeColor=default;fillColor=none;" vertex="1" parent="PM857RW7kMLTX4pS_oOw-59">
          <mxGeometry y="40" width="160" height="90" as="geometry" />
        </mxCell>
        <mxCell id="PM857RW7kMLTX4pS_oOw-61" value="-String nome" style="text;strokeColor=none;fillColor=none;align=left;verticalAlign=middle;spacingLeft=4;spacingRight=4;overflow=hidden;points=[[0,0.5],[1,0.5]];portConstraint=eastwest;rotatable=0;shadow=0;glass=0;sketch=0;" vertex="1" parent="PM857RW7kMLTX4pS_oOw-60">
          <mxGeometry width="160" height="30" as="geometry" />
        </mxCell>
        <mxCell id="PM857RW7kMLTX4pS_oOw-62" value="-Dipartimento[] dipartimenti" style="text;strokeColor=none;fillColor=none;align=left;verticalAlign=middle;spacingLeft=4;spacingRight=4;overflow=hidden;points=[[0,0.5],[1,0.5]];portConstraint=eastwest;rotatable=0;shadow=0;glass=0;sketch=0;" vertex="1" parent="PM857RW7kMLTX4pS_oOw-60">
          <mxGeometry y="30" width="160" height="30" as="geometry" />
        </mxCell>
        <mxCell id="PM857RW7kMLTX4pS_oOw-63" value="-Persona[] iscritti" style="text;strokeColor=none;fillColor=none;align=left;verticalAlign=middle;spacingLeft=4;spacingRight=4;overflow=hidden;points=[[0,0.5],[1,0.5]];portConstraint=eastwest;rotatable=0;shadow=0;glass=0;sketch=0;" vertex="1" parent="PM857RW7kMLTX4pS_oOw-60">
          <mxGeometry y="60" width="160" height="30" as="geometry" />
        </mxCell>
        <mxCell id="PM857RW7kMLTX4pS_oOw-64" value="Item 1" style="text;strokeColor=none;fillColor=none;align=left;verticalAlign=middle;spacingLeft=4;spacingRight=4;overflow=hidden;points=[[0,0.5],[1,0.5]];portConstraint=eastwest;rotatable=0;" vertex="1" parent="PM857RW7kMLTX4pS_oOw-59">
          <mxGeometry y="130" width="160" height="30" as="geometry" />
        </mxCell>
        <mxCell id="PM857RW7kMLTX4pS_oOw-65" value="Item 3" style="text;strokeColor=none;fillColor=none;align=left;verticalAlign=middle;spacingLeft=4;spacingRight=4;overflow=hidden;points=[[0,0.5],[1,0.5]];portConstraint=eastwest;rotatable=0;" vertex="1" parent="PM857RW7kMLTX4pS_oOw-59">
          <mxGeometry y="160" width="160" height="30" as="geometry" />
        </mxCell>
        <mxCell id="PM857RW7kMLTX4pS_oOw-66" value="Item 1" style="text;strokeColor=none;fillColor=none;align=left;verticalAlign=middle;spacingLeft=4;spacingRight=4;overflow=hidden;points=[[0,0.5],[1,0.5]];portConstraint=eastwest;rotatable=0;" vertex="1" parent="PM857RW7kMLTX4pS_oOw-59">
          <mxGeometry y="190" width="160" height="30" as="geometry" />
        </mxCell>
        <mxCell id="PM857RW7kMLTX4pS_oOw-67" value="1" style="endArrow=open;html=1;endSize=12;startArrow=diamondThin;startSize=14;startFill=1;edgeStyle=orthogonalEdgeStyle;align=left;verticalAlign=bottom;rounded=0;entryX=0.514;entryY=0.967;entryDx=0;entryDy=0;entryPerimeter=0;exitX=0.5;exitY=0;exitDx=0;exitDy=0;" edge="1" parent="1" source="PM857RW7kMLTX4pS_oOw-51" target="PM857RW7kMLTX4pS_oOw-50">
          <mxGeometry x="1" y="12" relative="1" as="geometry">
            <mxPoint x="592" y="310" as="sourcePoint" />
            <mxPoint x="650" y="280" as="targetPoint" />
            <Array as="points">
              <mxPoint x="590" y="310" />
              <mxPoint x="592" y="310" />
            </Array>
            <mxPoint as="offset" />
          </mxGeometry>
        </mxCell>
        <mxCell id="PM857RW7kMLTX4pS_oOw-68" value="1" style="endArrow=open;html=1;endSize=12;startArrow=diamondThin;startSize=14;startFill=1;edgeStyle=orthogonalEdgeStyle;align=left;verticalAlign=bottom;rounded=0;entryX=0.514;entryY=0.967;entryDx=0;entryDy=0;entryPerimeter=0;" edge="1" parent="1">
          <mxGeometry x="1" y="12" relative="1" as="geometry">
            <mxPoint x="591" y="550" as="sourcePoint" />
            <mxPoint x="590.96" y="510" as="targetPoint" />
            <Array as="points">
              <mxPoint x="591" y="560" />
              <mxPoint x="591" y="560" />
            </Array>
            <mxPoint as="offset" />
          </mxGeometry>
        </mxCell>
        <mxCell id="PM857RW7kMLTX4pS_oOw-69" value="1" style="endArrow=open;html=1;endSize=12;startArrow=diamondThin;startSize=14;startFill=1;edgeStyle=orthogonalEdgeStyle;align=left;verticalAlign=bottom;rounded=0;entryX=1;entryY=0;entryDx=0;entryDy=0;exitX=0;exitY=0;exitDx=0;exitDy=0;" edge="1" parent="1" source="PM857RW7kMLTX4pS_oOw-59" target="PM857RW7kMLTX4pS_oOw-1">
          <mxGeometry x="1" y="12" relative="1" as="geometry">
            <mxPoint x="610" y="340" as="sourcePoint" />
            <mxPoint x="611.96" y="279.01" as="targetPoint" />
            <Array as="points">
              <mxPoint x="440" y="560" />
              <mxPoint x="440" y="40" />
            </Array>
            <mxPoint as="offset" />
          </mxGeometry>
        </mxCell>
      </root>
    </mxGraphModel>
  </diagram>
</mxfile>
